<?xml version="1.0" encoding="iso-8859-1"?>
<svg id="kavlogo" height="200px" width="200px" version="1.1" xmlns="http://www.w3.org/2000/svg" xmlns:xlink="http://www.w3.org/1999/xlink" 
	 viewBox="0 0 512 512" xml:space="preserve">
<path style="fill:#EDF0F2;" d="M256,227.62c-33.957,0-66.892-5.995-95.244-17.337c-6.338-2.533-10.495-8.674-10.495-15.5
	c0-4.44-1.74-8.631-4.902-11.794s-7.354-4.902-11.794-4.902H90.489c-4.815,0-9.392-2.076-12.565-5.701
	c-3.169-3.62-4.619-8.435-3.984-13.206C86.054,68.434,164.326,0,256,0s169.946,68.434,182.059,159.18
	c0.636,4.772-0.815,9.587-3.984,13.206c-3.174,3.625-7.75,5.701-12.565,5.701h-43.076c-9.206,0-16.696,7.49-16.696,16.696
	c0,6.837-4.168,12.984-10.516,15.511C322.76,221.63,289.836,227.62,256,227.62z"/>
<path style="fill:#DAE1E6;" d="M351.223,210.294c6.348-2.528,10.516-8.674,10.516-15.511c0-9.206,7.49-16.696,16.696-16.696h43.076
	c4.815,0,9.392-2.076,12.565-5.701c3.169-3.62,4.619-8.435,3.984-13.206C425.946,68.434,347.674,0,256,0v227.62
	C289.836,227.62,322.76,221.63,351.223,210.294z"/>
<g>
	<circle style="fill:#736056;" cx="256" cy="83.478" r="16.696"/>
	<circle style="fill:#736056;" cx="185.166" cy="112.818" r="16.696"/>
</g>
<circle style="fill:#665247;" cx="326.834" cy="112.818" r="16.696"/>
<path style="fill:#E6563A;" d="M445.217,512H66.783c-7.837,0-14.614-5.446-16.304-13.098c-5-22.685-8.777-57.31-11.532-82.592
	c-0.511-4.717,1-9.43,4.168-12.957c2.979-3.32,7.147-5.299,11.571-5.527l130.445-11.093c8.494-0.765,15.216-8.081,15.216-16.646
	v-61.108c0-8.761-6.576-15.913-15.299-16.641L52.57,281.092c-0.223-0.017-0.445-0.043-0.663-0.07
	c-4.353-0.223-8.549-2.13-11.517-5.331c-3.131-3.386-4.837-7.913-4.511-12.511c2.717-38.739,7.635-74.212,14.609-105.43
	c1.709-7.631,8.475-13.055,16.295-13.055h66.783c13.364,0,25.935,5.218,35.403,14.684c6.527,6.521,11.027,14.516,13.201,23.234
	c44.636,15.206,102.728,15.255,147.68-0.017c5.456-21.749,25.174-37.901,48.587-37.901h66.783c7.82,0,14.586,5.424,16.294,13.055
	c6.973,31.218,11.892,66.69,14.609,105.43c0.326,4.619-1.282,9.163-4.44,12.554c-3.038,3.261-7.25,5.163-11.69,5.305
	c-0.185,0.022-0.375,0.038-0.56,0.055l-132.451,11.243c-8.75,0.728-15.327,7.88-15.327,16.641v61.109
	c0,8.565,6.723,15.881,15.31,16.652l130.712,11.119c4.261,0.337,8.288,2.294,11.157,5.495c3.169,3.527,4.734,8.239,4.223,12.957
	c-2.756,25.283-6.532,59.907-11.532,82.592C459.832,506.554,453.054,512,445.217,512z M52.63,281.043h0.011H52.63z M461.201,280.848
	c-0.011,0-0.017,0-0.027,0C461.185,280.848,461.191,280.848,461.201,280.848z M50.799,280.848c0.011,0,0.017,0,0.027,0
	C50.815,280.848,50.809,280.848,50.799,280.848z"/>
<path style="fill:#FF694D;" d="M52.581,431.321c-12.011,0-23.49-4.212-32.712-12.092C9.766,410.593,3.673,398.593,2.717,385.43
	c-2.462-34.37-2.918-57.055-1.815-89.918c0.489-13.489,6.299-25.869,16.37-34.907c9.843-8.826,22.565-13.375,35.87-12.94
	c0.614-0.011,1.631,0.027,2.892,0.211l131.816,11.191c26.152,2.179,45.891,23.635,45.891,49.913v61.107
	c0,26.098-19.641,47.555-45.69,49.913L57.066,431.136c-0.207,0.017-0.419,0.032-0.63,0.043
	C55.147,431.272,53.859,431.321,52.581,431.321z M55.652,414.5h0.109H55.652z"/>
<circle style="fill:#665247;" cx="116.87" cy="339.478" r="16.696"/>
<path style="fill:#D9472B;" d="M256,194.031V512h189.217c7.837,0,14.614-5.446,16.304-13.098c5-22.685,8.777-57.31,11.532-82.592
	c0.511-4.717-1.054-9.43-4.223-12.957c-2.869-3.201-6.896-5.158-11.157-5.495l-130.712-11.119
	c-8.586-0.77-15.309-8.086-15.309-16.651v-61.108c0-8.761,6.576-15.913,15.327-16.641l132.451-11.245
	c0.185-0.017,0.375-0.032,0.56-0.055c4.44-0.141,8.652-2.044,11.69-5.305c3.158-3.391,4.766-7.935,4.44-12.554
	c-2.717-38.739-7.635-74.212-14.609-105.43c-1.707-7.63-8.474-13.054-16.294-13.054h-66.783c-23.413,0-43.13,16.152-48.587,37.902
	C307.404,190.222,281.685,194.025,256,194.031z"/>
<path style="fill:#665247;" d="M272.696,83.478c0-9.22-7.475-16.696-16.696-16.696v33.391
	C265.22,100.174,272.696,92.699,272.696,83.478z"/>
<path style="fill:#E6563A;" d="M459.419,431.321c-1.305,0-2.609-0.049-3.923-0.147c-0.196-0.011-0.386-0.022-0.56-0.038
	l-130.892-11.13c-26.142-2.364-45.783-23.821-45.783-49.919v-61.108c0-26.277,19.739-47.734,45.919-49.913l131.804-11.191
	c1.277-0.185,2.375-0.223,3.484-0.223c12.712-0.402,25.424,4.125,35.261,12.951c10.071,9.038,15.881,21.418,16.37,34.864
	c1.103,32.907,0.647,55.592-1.815,89.951v0.011c-0.956,13.163-7.049,25.163-17.152,33.799
	C482.907,427.108,471.43,431.321,459.419,431.321z M492.631,384.223h0.109H492.631z M461.201,280.848c-0.011,0-0.017,0-0.027,0
	C461.185,280.848,461.191,280.848,461.201,280.848z"/>
<circle style="fill:#59483E;" cx="395.13" cy="339.478" r="16.696"/>
</svg>